<svg width="107" height="109" viewBox="0 0 107 109" fill="none" xmlns="http://www.w3.org/2000/svg">
<path d="M31 13L52 9.00015L44.6446 20.9597L14.2748 74.9362L-0.0006362 67.0007L31 13Z" fill="#F86464"/>
<path d="M71 66L71 82L9 82L-3.44118e-06 67L71 66Z" fill="#F86464"/>
<path d="M88.9979 34.0051L107 34.003L79 82L63 82L62.9976 77.7495L88.9979 34.0051Z" fill="#F86464"/>
<path d="M47.5016 33.9995L67.0016 33.9992L52 59.5L32.5 59.5L47.5016 33.9995Z" fill="#F86464"/>
<path d="M30.3788 67.3875L44.6009 74.7178L26.974 108.917L18.0897 97.3002L15.6724 94.0738L30.3788 67.3875Z" fill="#F86464"/>
<path d="M104.934 34L97.5 50L42.9999 50.2313L47.5 34L104.934 34Z" fill="#F86464"/>
</svg>
